<svg width="230" height="230" viewBox="0 0 230 230" fill="none" xmlns="http://www.w3.org/2000/svg">
<path d="M62.2913 28.75H167.708C170.25 28.75 172.687 29.7597 174.484 31.5569C176.282 33.3541 177.291 35.7917 177.291 38.3333V57.5H52.708V38.3333C52.708 35.7917 53.7177 33.3541 55.5149 31.5569C57.3121 29.7597 59.7497 28.75 62.2913 28.75Z" fill="url(#paint0_linear_854_242)"/>
<path d="M52.708 57.5H177.291V191.667C177.291 194.208 176.282 196.646 174.484 198.443C172.687 200.24 170.25 201.25 167.708 201.25H62.2913C59.7497 201.25 57.3121 200.24 55.5149 198.443C53.7177 196.646 52.708 194.208 52.708 191.667V57.5Z" fill="url(#paint1_linear_854_242)"/>
<path d="M4.7915 86.25H52.7082V191.667H14.3748C11.8332 191.667 9.39562 190.657 7.5984 188.86C5.80117 187.063 4.7915 184.625 4.7915 182.083V86.25Z" fill="url(#paint2_linear_854_242)"/>
<path d="M14.3748 67.0833H52.7082V86.25H4.7915V76.6666C4.7915 74.125 5.80117 71.6874 7.5984 69.8902C9.39562 68.093 11.8332 67.0833 14.3748 67.0833Z" fill="url(#paint3_linear_854_242)"/>
<path d="M215.625 191.667H177.291V86.25H225.208V182.083C225.208 184.625 224.198 187.063 222.401 188.86C220.604 190.657 218.166 191.667 215.625 191.667Z" fill="url(#paint4_linear_854_242)"/>
<path d="M225.208 86.25H177.291V67.0833H215.625C218.166 67.0833 220.604 68.093 222.401 69.8902C224.198 71.6875 225.208 74.125 225.208 76.6667V86.25Z" fill="url(#paint5_linear_854_242)"/>
<path d="M52.7082 115H23.9582C22.6873 115 21.4686 114.495 20.57 113.597C19.6713 112.698 19.1665 111.479 19.1665 110.208C19.1665 108.938 19.6713 107.719 20.57 106.82C21.4686 105.922 22.6873 105.417 23.9582 105.417H52.7082V115ZM52.7082 138.958H23.9582C22.6873 138.958 21.4686 138.454 20.57 137.555C19.6713 136.656 19.1665 135.438 19.1665 134.167C19.1665 132.896 19.6713 131.677 20.57 130.778C21.4686 129.88 22.6873 129.375 23.9582 129.375H52.7082V138.958ZM52.7082 162.917H23.9582C22.6873 162.917 21.4686 162.412 20.57 161.513C19.6713 160.615 19.1665 159.396 19.1665 158.125C19.1665 156.854 19.6713 155.635 20.57 154.737C21.4686 153.838 22.6873 153.333 23.9582 153.333H52.7082V162.917ZM177.292 115H206.042C207.312 115 208.531 114.495 209.43 113.597C210.328 112.698 210.833 111.479 210.833 110.208C210.833 108.938 210.328 107.719 209.43 106.82C208.531 105.922 207.312 105.417 206.042 105.417H177.292V115ZM177.292 138.958H206.042C207.312 138.958 208.531 138.454 209.43 137.555C210.328 136.656 210.833 135.438 210.833 134.167C210.833 132.896 210.328 131.677 209.43 130.778C208.531 129.88 207.312 129.375 206.042 129.375H177.292V138.958ZM177.292 162.917H206.042C207.312 162.917 208.531 162.412 209.43 161.513C210.328 160.615 210.833 159.396 210.833 158.125C210.833 156.854 210.328 155.635 209.43 154.737C208.531 153.838 207.312 153.333 206.042 153.333H177.292V162.917Z" fill="#B4CDE1"/>
<path d="M91.0415 102.59L97.2228 108.819C97.6705 109.263 98.2015 109.614 98.7853 109.853C99.3691 110.091 99.9943 110.212 100.625 110.208C101.577 110.214 102.508 109.936 103.302 109.41C104.095 108.884 104.713 108.133 105.078 107.254C105.443 106.375 105.538 105.407 105.351 104.474C105.164 103.541 104.703 102.685 104.027 102.015L97.7978 95.8333L104.027 89.6521C104.929 88.7498 105.436 87.526 105.436 86.25C105.436 84.974 104.929 83.7502 104.027 82.8479C103.125 81.9456 101.901 81.4387 100.625 81.4387C99.3488 81.4387 98.1251 81.9456 97.2228 82.8479L91.0415 89.0771L84.8603 82.8479C84.4135 82.4011 83.8831 82.0467 83.2994 81.805C82.7157 81.5632 82.09 81.4387 81.4582 81.4387C80.8264 81.4387 80.2007 81.5632 79.617 81.805C79.0333 82.0467 78.5029 82.4011 78.0561 82.8479C77.6094 83.2947 77.255 83.8251 77.0132 84.4088C76.7714 84.9925 76.6469 85.6182 76.6469 86.25C76.6469 86.8818 76.7714 87.5075 77.0132 88.0912C77.255 88.6749 77.6094 89.2053 78.0561 89.6521L84.2853 95.8333L78.0561 102.015C77.3804 102.685 76.9195 103.541 76.7323 104.474C76.5451 105.407 76.64 106.375 77.005 107.254C77.3699 108.133 77.9884 108.884 78.7815 109.41C79.5746 109.936 80.5065 110.214 81.4582 110.208C84.0936 110.208 84.7645 108.915 91.0415 102.59ZM145.714 95.8333L151.944 89.6521C152.846 88.7498 153.353 87.526 153.353 86.25C153.353 84.974 152.846 83.7502 151.944 82.8479C151.041 81.9456 149.818 81.4387 148.542 81.4387C147.266 81.4387 146.042 81.9456 145.139 82.8479L138.958 89.0771L132.777 82.8479C131.875 81.9456 130.651 81.4387 129.375 81.4387C128.099 81.4387 126.875 81.9456 125.973 82.8479C125.071 83.7502 124.564 84.974 124.564 86.25C124.564 87.526 125.071 88.7498 125.973 89.6521L132.202 95.8333L125.973 102.015C125.071 102.917 124.564 104.141 124.564 105.417C124.564 106.693 125.071 107.916 125.973 108.819C126.875 109.721 128.099 110.228 129.375 110.228C130.651 110.228 131.875 109.721 132.777 108.819L138.958 102.59L145.139 108.819C146.042 109.721 147.266 110.228 148.542 110.228C149.818 110.228 151.041 109.721 151.944 108.819C152.846 107.916 153.353 106.693 153.353 105.417C153.353 104.141 152.846 102.917 151.944 102.015L145.714 95.8333ZM83.6145 139.773C83.0269 140.088 82.5116 140.522 82.1015 141.048C81.6914 141.574 81.3955 142.179 81.2328 142.826C81.07 143.472 81.044 144.146 81.1563 144.803C81.2686 145.46 81.5169 146.087 81.8852 146.642C82.2534 147.198 82.7337 147.671 83.2951 148.03C83.8565 148.39 84.4868 148.629 85.1457 148.731C85.8045 148.833 86.4774 148.796 87.1214 148.623C87.7653 148.451 88.3661 148.145 88.8853 147.727C96.6199 142.574 105.706 139.825 115 139.825C124.294 139.825 133.38 142.574 141.114 147.727C141.886 148.268 142.808 148.552 143.75 148.542C144.774 148.534 145.768 148.198 146.587 147.584C147.406 146.97 148.007 146.11 148.302 145.129C148.596 144.149 148.569 143.1 148.224 142.136C147.88 141.172 147.235 140.344 146.385 139.773C137.104 133.541 126.179 130.214 115 130.214C103.821 130.214 92.8953 133.541 83.6145 139.773Z" fill="#8AD3FE"/>
<path d="M67.0832 47.9166C69.7295 47.9166 71.8748 45.7713 71.8748 43.125C71.8748 40.4786 69.7295 38.3333 67.0832 38.3333C64.4368 38.3333 62.2915 40.4786 62.2915 43.125C62.2915 45.7713 64.4368 47.9166 67.0832 47.9166Z" fill="#F0F7FC"/>
<path d="M86.2497 47.9166C88.896 47.9166 91.0413 45.7713 91.0413 43.125C91.0413 40.4786 88.896 38.3333 86.2497 38.3333C83.6033 38.3333 81.458 40.4786 81.458 43.125C81.458 45.7713 83.6033 47.9166 86.2497 47.9166Z" fill="#F0F7FC"/>
<path d="M105.417 47.9166C108.063 47.9166 110.208 45.7713 110.208 43.125C110.208 40.4786 108.063 38.3333 105.417 38.3333C102.77 38.3333 100.625 40.4786 100.625 43.125C100.625 45.7713 102.77 47.9166 105.417 47.9166Z" fill="#F0F7FC"/>
<defs>
<linearGradient id="paint0_linear_854_242" x1="115" y1="57.5" x2="115" y2="28.75" gradientUnits="userSpaceOnUse">
<stop stop-color="#007BFF"/>
<stop offset="1" stop-color="#8CC4FF"/>
</linearGradient>
<linearGradient id="paint1_linear_854_242" x1="115" y1="201.25" x2="115" y2="57.5" gradientUnits="userSpaceOnUse">
<stop stop-color="#D3E6F5"/>
<stop offset="1" stop-color="#F0F7FC"/>
</linearGradient>
<linearGradient id="paint2_linear_854_242" x1="80.4519" y1="138.958" x2="-6.66058" y2="138.958" gradientUnits="userSpaceOnUse">
<stop stop-color="#D3E6F5"/>
<stop offset="0.56" stop-color="#E6F1FA"/>
<stop offset="1" stop-color="#F0F7FC"/>
</linearGradient>
<linearGradient id="paint3_linear_854_242" x1="71.0123" y1="76.6666" x2="30.7144" y2="76.6666" gradientUnits="userSpaceOnUse">
<stop stop-color="#CB0001"/>
<stop offset="1" stop-color="#E62C2D"/>
</linearGradient>
<linearGradient id="paint4_linear_854_242" x1="149.548" y1="138.958" x2="236.66" y2="138.958" gradientUnits="userSpaceOnUse">
<stop stop-color="#D3E6F5"/>
<stop offset="0.56" stop-color="#E6F1FA"/>
<stop offset="1" stop-color="#F0F7FC"/>
</linearGradient>
<linearGradient id="paint5_linear_854_242" x1="158.987" y1="76.6667" x2="199.285" y2="76.6667" gradientUnits="userSpaceOnUse">
<stop stop-color="#CB0001"/>
<stop offset="1" stop-color="#E52C2D"/>
</linearGradient>
</defs>
</svg>
